<?xml version="1.0" standalone="no"?>
<!DOCTYPE svg PUBLIC "-//W3C//DTD SVG 20010904//EN"
 "http://www.w3.org/TR/2001/REC-SVG-20010904/DTD/svg10.dtd">
<svg version="1.0" xmlns="http://www.w3.org/2000/svg"
 width="466.000000pt" height="466.000000pt" viewBox="0 0 466.000000 466.000000"
 preserveAspectRatio="xMidYMid meet">
<metadata>
Created by potrace 1.11, written by Peter Selinger 2001-2013
</metadata>
<g transform="translate(0.000000,466.000000) scale(0.100000,-0.100000)"
fill="#000000" stroke="none">
<path d="M2143 3896 c-24 -8 -89 -19 -145 -26 -57 -6 -143 -18 -193 -25 -254
-39 -246 -37 -333 -90 -46 -27 -107 -63 -136 -80 -219 -126 -445 -348 -610
-598 l-38 -58 26 -37 c14 -20 30 -51 36 -69 9 -24 19 -33 43 -38 43 -9 167
-45 192 -55 47 -20 164 -41 179 -33 15 8 25 22 110 149 211 315 405 462 710
534 98 23 268 28 336 10 52 -14 67 -5 116 67 21 32 53 76 70 98 40 52 84 133
84 155 0 21 -21 32 -135 72 -105 37 -240 47 -312 24z"/>
<path d="M2639 3693 c-24 -28 -42 -54 -55 -83 -4 -8 -10 -17 -13 -20 -3 -3
-10 -12 -16 -21 -5 -9 -28 -43 -51 -76 -51 -75 -58 -101 -35 -130 24 -28 91
-66 91 -51 0 6 3 8 7 4 4 -4 8 -15 8 -24 0 -9 29 -38 65 -65 36 -26 66 -54 68
-62 2 -7 14 -21 28 -29 13 -9 24 -21 24 -26 0 -6 8 -19 18 -29 9 -10 28 -36
42 -56 14 -20 33 -46 43 -56 9 -10 17 -33 17 -50 0 -17 5 -39 10 -50 6 -10 14
-38 18 -61 10 -61 6 -483 -6 -540 -5 -25 -6 -50 -3 -55 10 -15 95 -43 130 -43
18 0 61 -8 97 -17 35 -9 66 -14 69 -11 10 9 13 435 4 597 -4 84 -13 159 -18
164 -6 6 -11 19 -11 29 0 11 -9 36 -19 57 -29 56 -60 149 -53 157 4 3 -4 3
-18 -1 -22 -7 -23 -6 -12 8 12 14 7 29 -30 102 -66 131 -68 135 -79 135 -5 0
-9 6 -9 14 0 7 -20 36 -45 62 -42 45 -47 48 -59 32 -7 -10 -22 -18 -32 -18
-18 1 -18 1 -1 14 26 20 22 53 -8 60 -14 4 -25 13 -25 21 0 8 -13 28 -30 43
-16 16 -30 32 -30 35 0 3 -13 20 -28 37 l-28 30 -25 -27z m59 -111 c2 -8 -8
-12 -29 -12 -31 0 -32 1 -13 15 21 16 36 15 42 -3z m-78 -23 c0 -10 -7 -19
-15 -19 -15 0 -21 31 -9 43 11 10 24 -3 24 -24z m-72 -92 c2 -10 -3 -17 -12
-17 -10 0 -16 9 -16 21 0 24 23 21 28 -4z m42 8 c0 -8 -7 -15 -15 -15 -16 0
-20 12 -8 23 11 12 23 8 23 -8z m320 -47 c0 -16 -20 -7 -30 12 -10 19 -10 20
9 8 12 -7 21 -16 21 -20z m-62 -15 c-4 -22 -22 -20 -26 1 -2 10 3 16 13 16 10
0 15 -7 13 -17z m-233 -31 c4 -10 0 -12 -11 -8 -8 3 -27 6 -40 6 -15 0 -23 4
-19 10 9 15 64 8 70 -8z m155 -37 c0 -8 -6 -15 -14 -15 -17 0 -28 14 -19 24
12 12 33 6 33 -9z m-105 -5 c3 -6 -1 -7 -9 -4 -18 7 -21 14 -7 14 6 0 13 -4
16 -10z m302 -22 c-3 -8 -6 -5 -6 6 -1 11 2 17 5 13 3 -3 4 -12 1 -19z m-167
-14 c0 -8 -5 -12 -10 -9 -6 4 -8 11 -5 16 9 14 15 11 15 -7z m-80 -8 c0 -7 -9
-16 -19 -19 -17 -4 -20 4 -12 31 3 9 31 -1 31 -12z m284 -68 c-9 -14 -24 2
-24 25 1 21 1 21 15 3 8 -10 12 -23 9 -28z m-208 -23 c-3 -9 -11 -13 -16 -10
-8 5 -7 11 1 21 14 18 24 11 15 -11z m244 -20 c0 -8 -7 -15 -15 -15 -16 0 -20
12 -8 23 11 12 23 8 23 -8z m-240 -24 c0 -5 -7 -12 -16 -15 -22 -9 -24 -8 -24
9 0 8 9 15 20 15 11 0 20 -4 20 -9z m94 -87 c29 -7 30 -7 6 -16 -16 -6 -30 -4
-46 7 -13 8 -30 15 -39 15 -20 0 -19 17 3 29 13 8 21 5 32 -9 8 -10 28 -22 44
-26z m184 -22 c4 -36 -6 -41 -28 -14 -19 22 -14 54 8 50 11 -2 18 -15 20 -36z
m22 -62 c0 -5 -5 -10 -11 -10 -5 0 -7 5 -4 10 3 6 8 10 11 10 2 0 4 -4 4 -10z
m-123 -408 c-11 -2 -17 -17 -20 -45 -3 -41 -4 -40 -5 9 -2 57 4 70 26 51 13
-11 13 -12 -1 -15z m-20 -149 c-3 -10 -5 -2 -5 17 0 19 2 27 5 18 2 -10 2 -26
0 -35z m60 -179 c-3 -3 -12 -4 -19 -1 -8 3 -5 6 6 6 11 1 17 -2 13 -5z m51
-32 c2 -7 -3 -12 -12 -12 -9 0 -16 7 -16 16 0 17 22 14 28 -4z"/>
<path d="M2485 3069 c-22 -17 -61 -44 -87 -61 -63 -41 -63 -66 -2 -133 90
-100 131 -227 120 -370 -8 -96 -35 -159 -101 -240 -89 -109 -84 -131 31 -145
78 -10 178 -27 203 -35 46 -14 60 40 102 390 34 290 18 415 -72 531 -76 99
-126 115 -194 63z"/>
<path d="M2095 2800 c-11 -5 -35 -9 -52 -9 -18 -1 -41 -9 -51 -19 -10 -10 -26
-21 -35 -25 -20 -7 -22 -28 -5 -45 9 -9 9 -12 0 -12 -7 0 -12 5 -12 10 0 6 -7
10 -16 10 -13 0 -15 -7 -11 -36 5 -31 4 -34 -9 -23 -9 7 -18 8 -23 3 -8 -8
-21 -109 -21 -161 0 -12 -9 -38 -20 -56 -20 -34 -20 -34 0 -52 11 -10 20 -22
20 -26 0 -4 18 -26 40 -48 22 -22 40 -44 40 -49 0 -5 11 -19 24 -31 13 -13 27
-33 30 -46 7 -29 46 -23 46 7 0 17 5 20 30 15 31 -7 38 1 19 20 -7 7 -6 12 5
16 8 3 18 2 21 -3 23 -38 99 40 131 134 28 81 47 189 42 251 -3 43 -6 50 -28
55 -21 5 -22 7 -7 13 43 16 5 82 -58 98 -68 18 -79 19 -100 9z m-35 -40 c0 -5
-5 -10 -11 -10 -5 0 -7 5 -4 10 3 6 8 10 11 10 2 0 4 -4 4 -10z m-60 -112 c0
-6 -6 -5 -15 2 -8 7 -15 14 -15 16 0 2 7 1 15 -2 8 -4 15 -11 15 -16z m-87
-228 c4 0 5 -5 2 -10 -4 -7 -11 -6 -19 2 -17 18 -26 45 -18 53 4 4 11 -5 16
-19 6 -14 14 -26 19 -26z m87 -37 c0 -20 -24 -11 -28 10 -2 12 1 15 12 11 9
-3 16 -13 16 -21z m180 13 c0 -3 -4 -8 -10 -11 -5 -3 -10 -1 -10 4 0 6 5 11
10 11 6 0 10 -2 10 -4z m-78 -23 c24 -21 23 -33 -2 -33 -11 0 -20 7 -20 15 0
8 -5 15 -11 15 -5 0 -7 5 -4 10 9 14 16 13 37 -7z m-202 -3 c0 -5 -5 -10 -11
-10 -5 0 -7 5 -4 10 3 6 8 10 11 10 2 0 4 -4 4 -10z m304 -45 c7 -19 -14 -19
-40 0 -18 14 -18 14 7 15 15 0 29 -7 33 -15z m-174 -19 c0 -8 -7 -17 -16 -20
-28 -11 -34 -6 -22 14 15 23 38 27 38 6z m110 -31 c0 -8 -4 -15 -10 -15 -5 0
-10 7 -10 15 0 8 5 15 10 15 6 0 10 -7 10 -15z"/>
<path d="M2259 2073 c-15 -2 -30 -12 -33 -21 -18 -48 -67 -116 -100 -138 -20
-14 -48 -43 -61 -64 -14 -22 -30 -40 -35 -40 -5 0 -14 -19 -20 -42 -7 -24 -18
-62 -26 -86 -8 -24 -12 -48 -9 -53 4 -5 23 -9 43 -9 20 -1 55 -7 77 -15 37
-13 42 -13 101 15 34 17 69 30 78 30 9 0 16 4 16 9 0 5 11 12 25 15 14 4 32
17 41 31 9 14 21 25 28 25 14 1 66 46 66 58 0 5 18 24 40 43 22 19 40 39 40
45 0 6 9 19 20 29 11 10 19 25 18 34 -2 10 6 17 20 19 22 3 46 34 35 46 -3 3
-17 6 -30 6 -13 0 -22 4 -18 9 8 13 -29 23 -74 20 -22 -2 -46 3 -54 10 -9 7
-35 14 -59 17 -24 2 -56 6 -73 8 -16 2 -42 2 -56 -1z m317 -100 c-10 -10 -19
5 -10 18 6 11 8 11 12 0 2 -7 1 -15 -2 -18z m-116 -44 c0 -3 -7 -12 -15 -19
-13 -11 -15 -7 -15 26 1 36 2 38 15 20 8 -11 15 -23 15 -27z m-242 -43 c3 -20
0 -27 -10 -24 -7 3 -14 17 -16 32 -3 20 0 27 10 24 7 -3 14 -17 16 -32z m79
-32 c-3 -3 -12 -4 -19 -1 -8 3 -5 6 6 6 11 1 17 -2 13 -5z m90 -5 c-14 -8 -22
-8 -30 0 -8 8 -3 11 19 11 25 -1 27 -2 11 -11z m-53 -54 c3 -10 -3 -17 -20
-21 -33 -8 -44 4 -20 22 25 18 32 18 40 -1z m-282 -57 c-9 -9 -12 -7 -12 12 0
19 3 21 12 12 9 -9 9 -15 0 -24z"/>
<path d="M3269 1728 c-77 -106 -68 -137 18 -69 36 28 58 72 49 96 -10 26 -35
16 -67 -27z"/>
<path d="M2975 1374 c-106 -96 -292 -216 -386 -249 -20 -7 -71 -31 -113 -54
-43 -22 -108 -50 -146 -62 -85 -25 -98 -38 -74 -74 14 -22 15 -30 4 -49 -14
-27 -4 -49 36 -79 21 -16 31 -17 76 -7 29 6 99 15 154 20 120 10 147 22 223
99 130 132 171 191 171 246 0 38 23 62 68 71 40 8 61 32 69 77 7 46 -4 107
-20 107 -7 -1 -34 -21 -62 -46z"/>
</g>
</svg>
