<?xml version="1.0" standalone="no"?>
<!DOCTYPE svg PUBLIC "-//W3C//DTD SVG 20010904//EN"
 "http://www.w3.org/TR/2001/REC-SVG-20010904/DTD/svg10.dtd">
<svg version="1.0" xmlns="http://www.w3.org/2000/svg"
 width="600.000000pt" height="600.000000pt" viewBox="0 0 600.000000 600.000000"
 preserveAspectRatio="xMidYMid meet">
<metadata>
Created by potrace 1.11, written by Peter Selinger 2001-2013
</metadata>
<g transform="translate(0.000000,600.000000) scale(0.100000,-0.100000)"
fill="#000000" stroke="none">
<path d="M2970 5380 c0 -5 5 -10 10 -10 6 0 10 5 10 10 0 6 -4 10 -10 10 -5 0
-10 -4 -10 -10z"/>
<path d="M3005 5380 c5 -8 71 -7 79 1 3 3 -15 5 -39 5 -24 1 -42 -2 -40 -6z"/>
<path d="M2880 5370 c0 -5 9 -8 20 -7 21 1 18 10 -5 13 -8 1 -15 -2 -15 -6z"/>
<path d="M2850 5360 c-13 -8 -12 -10 3 -10 9 0 17 5 17 10 0 12 -1 12 -20 0z"/>
<path d="M3108 5363 c12 -2 22 -9 22 -14 0 -6 5 -7 11 -3 15 9 -9 24 -36 22
-17 -1 -17 -1 3 -5z"/>
<path d="M3165 5341 c-3 -5 2 -16 10 -24 8 -8 16 -29 17 -46 1 -17 5 -31 8
-31 7 0 4 -177 -4 -255 -8 -72 -26 -102 -74 -122 -35 -14 -129 -19 -186 -8
-38 8 -86 33 -86 46 0 6 -5 7 -10 4 -6 -4 1 -16 17 -28 15 -12 31 -26 35 -32
5 -6 8 -6 8 0 0 6 4 4 9 -3 4 -7 18 -14 29 -15 12 -1 22 -4 22 -7 0 -8 151 -4
180 5 33 10 82 66 76 88 -2 9 -1 17 4 17 7 0 12 64 14 180 1 30 5 61 10 69 6
10 5 12 -2 7 -8 -5 -12 5 -12 33 0 23 -4 41 -10 41 -5 0 -7 6 -4 14 3 8 -6 24
-20 37 -14 12 -23 26 -20 31 3 4 3 8 0 8 -3 0 -7 -4 -11 -9z"/>
<path d="M2814 5310 c-4 -16 -10 -30 -13 -30 -4 0 -7 -11 -7 -25 0 -39 13 -30
20 14 3 22 13 47 22 55 14 15 14 16 -1 16 -9 0 -18 -12 -21 -30z"/>
<path d="M2964 5205 c-32 -31 -36 -43 -23 -66 6 -12 7 -19 2 -16 -14 9 -13
-89 1 -108 17 -24 81 -28 98 -7 11 13 11 14 -2 7 -26 -16 -70 -14 -71 4 -2 17
-2 78 0 123 1 37 50 63 81 41 11 -8 18 -19 15 -24 -4 -5 -1 -9 4 -9 14 0 14
13 -1 28 -7 7 -9 12 -4 12 4 0 0 7 -9 16 -23 24 -67 23 -91 -1z"/>
<path d="M2794 5211 c4 -5 1 -11 -6 -13 -8 -3 -7 -6 3 -10 10 -4 15 1 16 13 1
10 -3 19 -8 19 -6 0 -8 -4 -5 -9z"/>
<path d="M2795 5160 c-3 -5 -1 -10 4 -10 6 0 11 5 11 10 0 6 -2 10 -4 10 -3 0
-8 -4 -11 -10z"/>
<path d="M2795 5130 c3 -5 8 -10 11 -10 2 0 4 5 4 10 0 6 -5 10 -11 10 -5 0
-7 -4 -4 -10z"/>
<path d="M3066 5125 c-3 -8 -1 -15 4 -15 6 0 10 7 10 15 0 8 -2 15 -4 15 -2 0
-6 -7 -10 -15z"/>
<path d="M2796 5053 c1 -61 23 -157 31 -135 3 7 -1 27 -8 44 -7 16 -12 57 -12
89 0 32 -3 59 -6 59 -4 0 -6 -26 -5 -57z"/>
<path d="M3069 5098 c-5 -17 -4 -50 3 -54 4 -3 8 9 8 25 0 17 -2 31 -5 31 -3
0 -5 -1 -6 -2z"/>
<path d="M3056 5027 c3 -10 9 -15 12 -12 3 3 0 11 -7 18 -10 9 -11 8 -5 -6z"/>
<path d="M2796 4693 c-3 -4 -12 -8 -19 -9 -59 -10 -87 -17 -140 -36 -34 -11
-74 -29 -89 -40 -16 -11 -28 -17 -28 -14 0 6 -37 -24 -81 -66 -15 -14 -31 -23
-34 -20 -4 4 -5 2 -3 -3 2 -6 -13 -31 -33 -55 -40 -49 -64 -91 -61 -102 1 -5
-2 -8 -7 -8 -5 0 -15 -17 -22 -37 -7 -21 -18 -48 -26 -60 -8 -12 -15 -26 -15
-30 0 -4 -5 -19 -10 -33 -12 -31 -20 -73 -22 -125 -1 -22 -5 -45 -9 -52 -4 -6
-3 -14 1 -17 11 -6 10 -126 -1 -143 -4 -6 -3 -14 3 -18 7 -4 7 -12 0 -25 -6
-11 -6 -21 -1 -24 10 -7 9 -25 -3 -44 -4 -7 -3 -19 4 -27 8 -9 8 -15 0 -20 -6
-3 -7 -12 -3 -18 10 -17 11 -47 2 -53 -5 -2 -4 -16 1 -29 7 -17 6 -25 -1 -25
-7 0 -8 -5 -3 -12 11 -16 11 -39 0 -56 -4 -7 -3 -19 4 -27 8 -9 8 -15 0 -20
-6 -4 -7 -12 -3 -18 7 -11 9 -33 3 -47 -7 -16 -4 -243 4 -247 4 -3 2 -9 -5
-14 -8 -5 -9 -9 -3 -9 11 0 10 -47 -1 -97 -3 -12 0 -25 5 -28 8 -5 7 -11 -1
-21 -7 -9 -8 -14 -1 -14 11 0 11 -18 -1 -36 -3 -6 -3 -14 1 -18 3 -4 8 -58 9
-119 3 -194 11 -331 22 -359 5 -14 7 -28 5 -31 -3 -3 -1 -13 4 -24 19 -35 35
-78 34 -85 -1 -5 1 -8 6 -8 4 0 13 -14 21 -30 12 -29 132 -158 177 -190 55
-40 174 -100 219 -110 6 -1 26 -8 45 -15 31 -12 96 -26 110 -24 3 0 17 -4 33
-10 18 -7 27 -7 27 0 0 6 7 6 18 1 35 -17 225 -3 342 24 41 10 83 18 92 17 10
0 16 3 13 7 -3 5 47 29 75 35 10 3 65 30 70 35 3 3 17 12 31 20 74 42 180 141
225 210 16 25 31 47 34 50 13 11 67 135 76 173 1 4 2 8 4 10 18 23 45 333 30
342 -3 2 -7 20 -8 40 -2 19 -7 47 -12 61 -6 14 -8 29 -5 34 3 5 1 11 -5 15 -5
3 -10 13 -10 21 0 18 -20 39 -37 40 -28 2 -31 5 -36 34 -6 29 -13 33 -59 33
-10 0 -18 3 -18 7 0 4 -84 6 -187 6 -104 -1 -205 1 -225 5 -44 7 -57 1 -63
-32 -6 -30 -18 -144 -18 -181 -1 -39 -14 -35 -14 5 -4 176 0 568 6 634 2 23
51 -11 59 -41 5 -18 15 -30 27 -32 68 -11 104 -16 135 -19 19 -1 35 -4 35 -5
0 -2 59 -4 130 -5 89 -2 132 1 137 9 6 8 8 8 8 -1 0 -9 7 -10 23 -4 12 4 32 7
45 6 12 -1 22 2 22 7 0 4 5 8 11 8 5 0 7 -6 3 -12 -5 -9 -4 -10 3 -3 5 6 18
37 27 70 10 33 20 67 23 75 3 8 6 30 6 48 0 17 2 32 6 32 11 0 -1 225 -12 237
-4 3 -7 18 -7 33 0 15 -7 41 -16 58 -8 18 -13 36 -10 41 3 5 -1 12 -10 15 -9
4 -14 9 -11 13 6 6 -68 152 -83 163 -3 3 -20 25 -37 50 -35 51 -110 130 -124
130 -5 0 -9 7 -9 15 0 8 -6 15 -13 15 -7 0 -20 8 -29 18 -33 34 -133 101 -203
134 -28 12 -53 27 -56 32 -4 5 -11 6 -17 2 -6 -3 -13 -2 -17 4 -6 9 -70 31
-110 37 -26 4 -60 11 -60 13 0 11 -249 20 -266 9 -8 -4 -18 -4 -25 1 -6 6 -14
7 -18 3z m290 -47 c63 -10 163 -41 229 -72 33 -15 63 -27 68 -26 4 1 7 -2 7
-7 0 -5 14 -14 30 -21 17 -7 30 -15 30 -19 0 -4 14 -15 32 -26 74 -43 248
-248 248 -291 0 -8 5 -14 11 -14 5 0 7 -4 4 -10 -3 -5 -2 -10 3 -10 9 0 37
-78 34 -92 -1 -5 2 -8 7 -8 6 0 10 -8 9 -17 0 -10 4 -39 9 -64 5 -25 9 -53 7
-62 -1 -9 1 -17 6 -17 8 0 5 -43 -4 -59 -4 -5 -2 -13 4 -16 6 -4 8 -14 6 -23
-3 -10 -8 -39 -10 -65 -3 -26 -9 -53 -13 -60 -4 -7 -6 -22 -4 -34 1 -13 -3
-23 -9 -23 -7 0 -10 -6 -7 -14 8 -21 -17 -38 -66 -45 -58 -8 -250 -6 -317 3
-30 4 -66 9 -80 11 -14 1 -32 3 -41 4 -23 1 -30 23 -35 106 -3 63 -12 156 -19
195 -1 8 -7 28 -14 43 -6 16 -11 32 -11 37 0 4 -15 24 -32 44 -39 44 -102 65
-173 59 -161 -14 -185 -35 -201 -173 -3 -25 -7 -61 -9 -80 -23 -201 -22 -757
1 -900 3 -19 6 -47 7 -62 0 -16 4 -28 9 -28 4 0 7 -10 6 -22 -2 -31 37 -109
72 -145 43 -44 137 -66 210 -50 49 11 70 20 70 30 0 6 3 8 6 4 7 -7 45 36 63
71 20 38 30 89 38 192 3 41 10 78 17 82 7 5 8 8 0 8 -9 0 -12 38 -4 48 3 3 7
19 9 33 0 6 10 9 21 6 11 -3 20 0 20 6 0 7 5 5 10 -3 7 -11 10 -11 10 -2 0 9
6 10 18 4 17 -9 199 -8 208 1 3 2 20 1 39 -3 21 -5 38 -3 44 3 7 7 11 7 11 1
0 -6 12 -11 28 -11 49 -2 72 -7 73 -15 2 -12 6 -27 9 -33 1 -3 4 -9 5 -15 1
-5 4 -11 5 -12 2 -2 3 -17 4 -33 1 -17 5 -35 8 -40 11 -20 9 -214 -2 -236 -10
-17 -9 -20 1 -14 8 6 10 4 5 -4 -5 -7 -10 -27 -13 -44 -3 -18 -9 -40 -14 -49
-5 -10 -7 -18 -4 -18 3 0 -1 -13 -10 -30 -9 -16 -13 -30 -10 -30 9 0 -67 -134
-83 -147 -9 -7 -13 -13 -9 -13 16 0 -83 -102 -149 -153 -50 -40 -213 -124
-249 -130 -11 -1 -26 -6 -33 -11 -7 -4 -16 -5 -19 -2 -3 3 -11 1 -18 -4 -6 -5
-28 -11 -48 -12 -20 -2 -37 -6 -37 -9 0 -3 -21 -5 -46 -4 -25 0 -48 -3 -51 -8
-2 -4 -11 -3 -19 4 -8 6 -14 7 -14 3 0 -5 -16 -9 -35 -10 -19 0 -35 3 -35 8 0
5 -9 4 -20 -2 -11 -6 -20 -7 -20 -2 0 4 -19 7 -42 7 -23 0 -73 7 -112 18 -88
22 -85 21 -119 35 -16 7 -33 12 -38 12 -5 0 -9 4 -9 9 0 8 -19 16 -56 26 -40
10 -157 132 -187 195 -31 64 -39 90 -41 142 0 20 -3 35 -6 33 -3 -2 -7 42 -9
98 -2 56 -5 152 -7 212 -3 61 -4 119 -4 130 2 45 2 70 0 75 -6 16 -5 568 1
581 4 8 4 21 -1 29 -4 7 -4 23 0 35 5 14 4 27 -3 34 -8 8 -8 11 1 11 8 0 9 7
2 24 -5 13 -6 26 -3 29 3 3 7 88 9 189 2 101 5 190 7 198 14 52 79 215 89 221
6 3 9 9 9 13 -2 8 31 59 44 68 5 4 7 8 3 8 -8 0 60 67 108 108 15 12 33 22 41
22 7 0 13 5 13 10 0 5 4 9 8 7 4 -1 24 6 43 15 35 17 67 30 84 33 6 1 12 3 15
5 6 3 30 7 90 16 25 3 46 7 48 8 5 5 198 -2 238 -8z m4 -706 c3 -1 9 -2 14 -1
21 4 47 -13 66 -43 11 -18 20 -37 20 -41 0 -11 -183 -2 -199 10 -12 8 -13 7
-6 -4 6 -11 2 -13 -23 -8 -18 4 -32 2 -32 -3 0 -5 -7 -7 -16 -3 -9 3 -12 9 -7
12 4 3 8 12 8 20 0 19 54 51 95 56 18 2 34 6 37 8 4 4 28 2 43 -3z m85 -109
c6 -1 11 -28 11 -60 0 -36 -4 -57 -10 -54 -5 4 -6 1 -1 -6 4 -7 6 -63 5 -124
-2 -62 -4 -256 -4 -432 l-1 -319 -32 -7 c-19 -4 -33 -2 -33 3 0 5 -5 6 -12 2
-11 -7 -54 -7 -119 0 -15 2 -40 -3 -55 -10 -26 -11 -27 -12 -7 -13 13 -1 22
-4 22 -8 -5 -28 1 -35 18 -22 15 12 16 12 8 -1 -7 -12 -6 -13 6 -4 8 6 50 10
103 8 49 -1 101 2 116 6 25 7 27 6 23 -19 -2 -14 -5 -32 -5 -39 -1 -14 -78
-100 -78 -87 0 4 -6 2 -14 -4 -8 -7 -39 -12 -70 -12 -46 -1 -63 4 -92 26 -19
15 -33 30 -30 33 3 3 1 11 -5 19 -6 7 -8 13 -5 13 4 0 2 9 -4 20 -19 35 -22
107 -24 461 -1 380 1 449 16 449 5 0 6 -4 3 -10 -3 -5 -2 -10 2 -10 5 0 9 -9
9 -20 0 -11 -3 -20 -7 -20 -7 0 -2 -77 6 -91 4 -5 2 -9 -2 -9 -5 0 -9 -9 -9
-19 0 -11 4 -17 8 -15 4 3 8 1 8 -5 0 -5 -5 -12 -10 -14 -6 -3 -5 -4 2 -3 16
3 20 216 3 216 -5 0 -3 5 5 10 12 8 12 10 1 10 -9 0 -10 4 -4 13 5 6 10 28 12
47 2 19 4 44 5 55 1 11 -6 27 -17 36 -17 14 -8 15 115 13 73 -1 138 -2 143 -3z
m-260 -83 c-2 -35 -4 -65 -5 -68 -1 -3 -2 -8 -1 -12 0 -5 -3 -8 -9 -8 -5 0
-10 7 -10 15 0 8 5 15 11 15 8 0 8 4 0 14 -8 10 -9 21 -3 33 5 10 7 30 5 46
-2 15 1 27 6 27 5 0 8 -28 6 -62z"/>
<path d="M2915 3158 c1 -145 -2 -270 -6 -278 -3 -8 -3 -24 1 -35 6 -16 9 -17
13 -5 3 8 5 24 6 35 0 16 -1 317 -1 508 0 20 -3 37 -7 37 -4 0 -6 -118 -6
-262z"/>
</g>
</svg>
